<svg xmlns="http://www.w3.org/2000/svg" width="64" height="64" viewBox="0 0 64 64" fill="none">
  <rect width="64" height="64" rx="18" fill="#161723" />
  <path
    d="M18 22.5C18 18.9101 20.9101 16 24.5 16H39.5C43.0899 16 46 18.9101 46 22.5V27H38.8V24.5C38.8 23.3954 37.9046 22.5 36.8 22.5H27.2C26.0954 22.5 25.2 23.3954 25.2 24.5V39.5C25.2 40.6046 26.0954 41.5 27.2 41.5H36.8C37.9046 41.5 38.8 40.6046 38.8 39.5V37H46V41.5C46 45.0899 43.0899 48 39.5 48H24.5C20.9101 48 18 45.0899 18 41.5V22.5Z"
    fill="#F7774E"
  />
  <path
    d="M33 32C33 30.3431 34.3431 29 36 29H49V35H36C34.3431 35 33 33.6569 33 32Z"
    fill="#DEF8C6"
  />
</svg>
